<svg width="40" height="40" viewBox="0 0 40 40" fill="none" xmlns="http://www.w3.org/2000/svg">
<path d="M12.4999 18.125V27.5M12.4999 12.5V12.5187M19.9999 27.5V18.125M27.4999 27.5V21.875C27.4999 20.8804 27.1049 19.9266 26.4016 19.2233C25.6983 18.5201 24.7445 18.125 23.7499 18.125C22.7554 18.125 21.8016 18.5201 21.0983 19.2233C20.395 19.9266 19.9999 20.8804 19.9999 21.875M8.75 5H31.25C33.3211 5 35 6.67893 35 8.75V31.25C35 33.3211 33.3211 35 31.25 35H8.75C6.67893 35 5 33.3211 5 31.25V8.75C5 6.67893 6.67893 5 8.75 5Z" stroke="#018762" stroke-width="3" stroke-linecap="round" stroke-linejoin="round"/>
</svg>
